<?xml version="1.0" encoding="utf-8"?>
<!-- Generator: Adobe Illustrator 16.0.0, SVG Export Plug-In . SVG Version: 6.00 Build 0)  -->
<!DOCTYPE svg PUBLIC "-//W3C//DTD SVG 1.1//EN" "http://www.w3.org/Graphics/SVG/1.1/DTD/svg11.dtd">
<svg version="1.1" id="Warstwa_1" xmlns="http://www.w3.org/2000/svg" xmlns:xlink="http://www.w3.org/1999/xlink" x="0px" y="0px"
	 width="612px" height="504px" viewBox="0 95.5 612 504" enable-background="new 0 95.5 612 504" xml:space="preserve">
<path fill="#78859C" d="M536.234,186.983h-69.127c-1.789,0-5.146-2.419-5.711-4.113l-17.874-53.64
	c-5.458-16.343-22.565-28.66-39.786-28.66H207.873c-17.243,0-34.356,12.332-39.791,28.679l-17.864,53.611
	c-0.569,1.695-3.932,4.118-5.715,4.118H75.375c-41.668,0.005-75.57,33.903-75.57,75.571v259.233
	c0,41.672,33.902,75.575,75.57,75.575h460.858c41.668,0,75.571-33.903,75.571-75.575V262.55
	C611.805,220.882,577.902,186.983,536.234,186.983z M575.875,521.783c0,21.861-17.78,39.646-39.642,39.646H75.375
	c-21.861,0-39.642-17.784-39.642-39.646V262.55c0-21.856,17.78-39.642,39.642-39.642h69.128c17.225,0,34.327-12.322,39.795-28.674
	l17.869-53.635c0.561-1.686,3.922-4.1,5.706-4.1h195.862c1.784,0,5.146,2.423,5.706,4.104l17.869,53.616
	c5.439,16.352,22.548,28.688,39.796,28.688h69.127c21.861,0,39.642,17.785,39.642,39.642V521.783z"/>
<path fill="#78859C" d="M311.37,234.665c-80.712,0-146.379,65.668-146.379,146.379c0,80.712,65.667,146.38,146.379,146.38
	c80.711,0,146.379-65.668,146.379-146.38C457.749,300.333,392.086,234.665,311.37,234.665z M311.37,491.499
	c-60.905,0-110.449-49.55-110.449-110.455c0-60.9,49.544-110.449,110.449-110.449c60.904,0,110.449,49.549,110.449,110.449
	C421.82,441.949,372.275,491.499,311.37,491.499z"/>
<path fill="#78859C" d="M311.37,302.517c-43.298,0-78.526,35.229-78.526,78.526c0,43.298,35.229,78.526,78.526,78.526
	c43.302,0,78.526-35.229,78.526-78.526C389.897,337.747,354.672,302.517,311.37,302.517z M311.37,423.646
	c-23.49,0-42.597-19.111-42.597-42.603c0-23.486,19.106-42.597,42.597-42.597s42.597,19.11,42.597,42.597
	C353.967,404.535,334.861,423.646,311.37,423.646z"/>
<path fill="#78859C" d="M525.485,281.193c-0.106-0.574-0.252-1.153-0.429-1.704c-0.169-0.561-0.36-1.111-0.589-1.662
	c-0.229-0.537-0.48-1.069-0.756-1.583s-0.574-1.027-0.896-1.508c-0.322-0.49-0.682-0.972-1.042-1.425
	c-0.383-0.452-0.779-0.896-1.186-1.307c-0.42-0.416-0.864-0.812-1.316-1.195c-0.458-0.359-0.935-0.72-1.415-1.042
	c-0.49-0.321-1.004-0.625-1.522-0.9c-0.514-0.271-1.041-0.523-1.578-0.752c-0.551-0.229-1.102-0.42-1.667-0.589
	c-0.551-0.177-1.125-0.321-1.699-0.429c-0.574-0.122-1.163-0.206-1.746-0.267c-1.177-0.116-2.363-0.116-3.535,0
	c-0.574,0.061-1.162,0.145-1.736,0.267c-0.574,0.107-1.148,0.252-1.714,0.429c-0.551,0.169-1.111,0.36-1.653,0.589
	c-0.536,0.229-1.073,0.477-1.592,0.752c-0.514,0.275-1.018,0.579-1.508,0.9c-0.49,0.322-0.972,0.683-1.41,1.042
	c-0.458,0.383-0.901,0.779-1.321,1.195c-0.416,0.41-0.812,0.854-1.187,1.307c-0.369,0.453-0.714,0.935-1.041,1.425
	c-0.322,0.48-0.635,0.994-0.91,1.508c-0.275,0.519-0.523,1.046-0.743,1.583c-0.224,0.551-0.429,1.102-0.598,1.662
	c-0.168,0.551-0.312,1.13-0.429,1.704c-0.122,0.574-0.206,1.163-0.267,1.746c-0.056,0.589-0.084,1.172-0.084,1.761
	c0,4.729,1.919,9.366,5.258,12.705c0.42,0.41,0.863,0.816,1.321,1.186c0.438,0.374,0.92,0.719,1.41,1.046
	c0.49,0.322,0.994,0.631,1.508,0.906c0.519,0.266,1.056,0.527,1.592,0.742c0.542,0.229,1.103,0.435,1.653,0.603
	c0.565,0.168,1.14,0.308,1.714,0.43c0.574,0.121,1.162,0.205,1.736,0.261c0.589,0.061,1.187,0.084,1.774,0.084
	c0.584,0,1.172-0.023,1.761-0.084c0.583-0.056,1.172-0.14,1.746-0.261c0.574-0.122,1.148-0.267,1.699-0.43
	c0.565-0.168,1.116-0.374,1.667-0.603c0.537-0.215,1.064-0.477,1.578-0.742c0.519-0.271,1.032-0.584,1.522-0.906
	c0.48-0.327,0.957-0.672,1.415-1.046c0.452-0.369,0.896-0.775,1.316-1.186c3.343-3.339,5.258-7.976,5.258-12.705
	c0-0.584-0.038-1.172-0.099-1.761C525.699,282.351,525.607,281.767,525.485,281.193z"/>
<path fill="#78859C" d="M525.485,331.49c-0.106-0.574-0.252-1.148-0.429-1.7c-0.169-0.564-0.374-1.115-0.589-1.667
	c-0.229-0.536-0.48-1.064-0.756-1.578s-0.574-1.031-0.896-1.508c-0.322-0.495-0.682-0.971-1.056-1.429
	c-0.369-0.453-0.766-0.896-1.186-1.303c-3.745-3.764-9.147-5.715-14.466-5.188c-0.574,0.061-1.162,0.159-1.736,0.267
	c-0.574,0.121-1.148,0.261-1.714,0.443c-0.551,0.168-1.111,0.359-1.653,0.583c-0.536,0.229-1.073,0.481-1.592,0.757
	c-0.514,0.275-1.018,0.574-1.508,0.896c-0.49,0.327-0.972,0.682-1.41,1.056c-0.458,0.373-0.901,0.766-1.321,1.186
	c-3.339,3.339-5.258,7.961-5.258,12.695c0,0.584,0.028,1.182,0.084,1.77c0.061,0.574,0.145,1.163,0.267,1.737
	c0.116,0.574,0.261,1.148,0.429,1.714c0.169,0.551,0.374,1.115,0.598,1.652c0.22,0.537,0.468,1.079,0.743,1.593
	s0.588,1.018,0.91,1.508c0.327,0.49,0.672,0.972,1.041,1.415c0.374,0.453,0.771,0.896,1.187,1.316
	c0.42,0.42,0.863,0.817,1.321,1.186c0.438,0.374,0.92,0.72,1.41,1.042s0.994,0.635,1.508,0.91c0.519,0.267,1.056,0.527,1.592,0.742
	c0.542,0.229,1.103,0.43,1.653,0.598c0.565,0.168,1.14,0.313,1.714,0.435c0.574,0.116,1.162,0.201,1.736,0.262
	c0.589,0.061,1.187,0.084,1.774,0.084c0.584,0,1.172-0.023,1.761-0.084c0.583-0.061,1.172-0.146,1.746-0.262
	c0.574-0.121,1.148-0.267,1.699-0.435c0.565-0.168,1.116-0.368,1.653-0.598c0.542-0.215,1.078-0.476,1.592-0.742
	c0.519-0.275,1.032-0.588,1.513-0.91c0.49-0.322,0.967-0.673,1.425-1.042c0.452-0.368,0.896-0.766,1.303-1.186
	c0.42-0.42,0.816-0.863,1.186-1.316c0.374-0.443,0.733-0.925,1.056-1.415s0.621-0.994,0.896-1.508s0.527-1.056,0.756-1.593
	c0.215-0.537,0.42-1.102,0.589-1.652c0.177-0.565,0.322-1.14,0.429-1.714c0.122-0.574,0.206-1.163,0.262-1.737
	c0.061-0.588,0.099-1.186,0.099-1.77c0-0.588-0.038-1.177-0.099-1.765C525.691,332.652,525.607,332.064,525.485,331.49z"/>
</svg>
