<?xml version="1.0" encoding="utf-8"?>
<!-- Generator: Adobe Illustrator 16.0.0, SVG Export Plug-In . SVG Version: 6.00 Build 0)  -->
<!DOCTYPE svg PUBLIC "-//W3C//DTD SVG 1.1//EN" "http://www.w3.org/Graphics/SVG/1.1/DTD/svg11.dtd">
<svg version="1.1" id="Warstwa_1" xmlns="http://www.w3.org/2000/svg" xmlns:xlink="http://www.w3.org/1999/xlink" x="0px" y="0px"
	 width="556.5px" height="626px" viewBox="0 80.5 556.5 626" enable-background="new 0 80.5 556.5 626" xml:space="preserve">
<path fill="#78859C" d="M130.211,271.239H27.04c-11.565,0-20.974,9.408-20.974,20.974V681.03c0,11.562,9.408,20.97,20.974,20.97
	h103.171c11.561,0,20.969-9.408,20.969-20.97V292.213C151.18,280.647,141.772,271.239,130.211,271.239z M115.27,666.089H41.977
	V307.149h73.293V666.089z"/>
<path fill="#78859C" d="M78.625,90c-40.342,0-73.156,32.814-73.156,73.152c0,40.342,32.814,73.156,73.156,73.156
	c40.333,0,73.152-32.814,73.152-73.156C151.778,122.814,118.963,90,78.625,90z M78.625,200.398
	c-20.539,0-37.246-16.707-37.246-37.246c0-20.535,16.707-37.242,37.246-37.242c20.535,0,37.242,16.707,37.242,37.242
	C115.867,183.686,99.16,200.398,78.625,200.398z"/>
<path fill="#78859C" d="M484.845,316.824c-24.663-20.587-56.017-31.597-88.253-30.999c-20.021,0.369-39.585,5.197-57.313,13.938
	v-8.488c0-11.062-8.97-20.031-20.031-20.031H214.2c-11.062,0-20.031,8.97-20.031,20.031v390.694c0,11.066,8.97,20.031,20.031,20.031
	h107.12c9.917,0,17.958-8.04,17.958-17.953V451.105c0-19.942,15.604-36.816,35.532-37.409c20.713-0.612,37.755,16.053,37.755,36.63
	V684.42c0,9.708,7.872,17.58,17.58,17.58h102.95c9.707,0,17.58-7.872,17.58-17.58V457.446
	C550.676,403.004,526.681,351.745,484.845,316.824z M514.765,666.089h-66.284V450.326c0-40.006-32.549-72.555-72.559-72.555
	c-40.006,0-72.555,32.549-72.555,72.555v215.763H230.08V307.149h73.287v26.097h0.023c-0.005,4.229,1.466,8.479,4.492,11.901
	c6.569,7.424,17.92,8.115,25.344,1.541c17.691-15.66,40.431-24.522,64.028-24.962c23.622-0.448,46.548,7.611,64.58,22.664
	c33.642,28.081,52.93,69.286,52.93,113.056V666.089z"/>
</svg>
