<svg xmlns="http://www.w3.org/2000/svg" width="612" height="624" viewBox="0 84.5 612 624"><path d="M483.672 469.113c-12.528-13.046-27.642-20.021-43.658-20.021-15.887 0-31.129 6.846-44.175 19.892l-40.816 40.688c-3.358-1.808-6.717-3.487-9.946-5.166-4.649-2.325-9.042-4.521-12.787-6.847-38.233-24.283-72.979-55.929-106.305-96.875-16.146-20.408-26.995-37.588-34.875-55.025 10.592-9.688 20.409-19.762 29.967-29.449 3.617-3.617 7.233-7.363 10.851-10.979 27.125-27.125 27.125-62.259 0-89.384l-35.263-35.262c-4.004-4.005-8.138-8.138-12.013-12.271-7.75-8.008-15.888-16.274-24.283-24.024-12.529-12.4-27.513-18.988-43.271-18.988s-31 6.588-43.916 18.988l-.259.258-43.917 44.302C12.472 205.483 3.043 225.633.977 249.012c-3.101 37.717 8.008 72.85 16.533 95.842 20.925 56.445 52.184 108.758 98.812 164.816 56.575 67.555 124.646 120.9 202.404 158.488 29.708 14.079 69.362 30.741 113.666 33.583 2.713.129 5.555.259 8.138.259 29.838 0 54.896-10.722 74.529-32.034.13-.258.388-.387.517-.646 6.717-8.138 14.467-15.5 22.604-23.379 5.554-5.296 11.237-10.851 16.792-16.663 12.787-13.304 19.504-28.804 19.504-44.691 0-16.017-6.846-31.388-19.892-44.304l-70.912-71.17zm46.242 136.012c-.129 0-.129.13 0 0-5.037 5.426-10.204 10.334-15.759 15.759-8.396 8.009-16.921 16.404-24.929 25.833-13.046 13.95-28.417 20.538-48.566 20.538-1.938 0-4.005 0-5.942-.13-38.362-2.454-74.013-17.438-100.75-30.225-73.108-35.392-137.304-85.638-190.649-149.316-44.046-53.088-73.496-102.172-93-154.871-12.013-32.163-16.404-57.222-14.467-80.858 1.291-15.113 7.104-27.643 17.825-38.363l44.046-44.046c6.329-5.941 13.045-9.171 19.633-9.171 8.138 0 14.725 4.908 18.858 9.042l.388.388c7.879 7.362 15.371 14.983 23.25 23.121 4.004 4.133 8.138 8.267 12.271 12.528l35.263 35.263c13.691 13.692 13.691 26.351 0 40.042-3.746 3.746-7.362 7.491-11.108 11.108-10.85 11.108-21.184 21.441-32.421 31.517-.258.259-.517.388-.646.646-11.108 11.108-9.042 21.959-6.717 29.321l.388 1.162c9.171 22.217 22.087 43.142 41.721 68.071l.129.129c35.65 43.917 73.237 78.146 114.7 104.367 5.296 3.358 10.721 6.071 15.888 8.654 4.649 2.325 9.041 4.521 12.787 6.846.517.259 1.033.646 1.55.904 4.392 2.196 8.525 3.229 12.788 3.229 10.721 0 17.438-6.717 19.633-8.913l44.175-44.175c4.393-4.392 11.367-9.688 19.505-9.688 8.008 0 14.596 5.037 18.6 9.429l.259.259 71.171 71.171c13.301 13.175 13.301 26.737.126 40.429zM330.74 235.579c33.841 5.684 64.583 21.7 89.125 46.241 24.541 24.542 40.429 55.284 46.241 89.125 1.421 8.525 8.783 14.467 17.18 14.467 1.033 0 1.938-.129 2.971-.258 9.558-1.55 15.888-10.592 14.337-20.15-6.975-40.945-26.35-78.274-55.929-107.854-29.579-29.579-66.908-48.954-107.854-55.929-9.559-1.55-18.471 4.779-20.15 14.208-1.68 9.429 4.52 18.6 14.079 20.15zm280.549 124.388c-11.496-67.425-43.271-128.779-92.096-177.604s-110.18-80.601-177.604-92.096c-9.429-1.68-18.342 4.779-20.021 14.208-1.551 9.559 4.779 18.471 14.337 20.15 60.192 10.204 115.088 38.75 158.746 82.279 43.658 43.658 72.075 98.554 82.279 158.746 1.421 8.524 8.783 14.466 17.18 14.466 1.033 0 1.938-.129 2.971-.258 9.429-1.421 15.888-10.463 14.208-19.891z" fill="#78859C"/></svg>