<?xml version="1.0" encoding="utf-8"?>
<!-- Generator: Adobe Illustrator 16.0.0, SVG Export Plug-In . SVG Version: 6.00 Build 0)  -->
<!DOCTYPE svg PUBLIC "-//W3C//DTD SVG 1.1//EN" "http://www.w3.org/Graphics/SVG/1.1/DTD/svg11.dtd">
<svg version="1.1" id="Warstwa_1" xmlns="http://www.w3.org/2000/svg" xmlns:xlink="http://www.w3.org/1999/xlink" x="0px" y="0px"
	 width="360px" height="624px" viewBox="16.5 81.5 360 624" enable-background="new 16.5 81.5 360 624" xml:space="preserve">
<path fill="#78859C" d="M237.319,702.401h-98.197c-16.402,0-29.745-13.343-29.745-29.744V451.166H52.085
	c-16.402,0-29.745-13.347-29.745-29.744v-94.91c0-16.402,13.343-29.744,29.745-29.744h57.291V249.24
	c0-47.125,14.798-87.218,42.788-115.938c28.116-28.852,67.41-44.098,113.632-44.098l74.891,0.121
	c16.374,0.028,29.693,13.371,29.693,29.745v88.121c0,16.402-13.338,29.744-29.736,29.744l-50.422,0.02
	c-15.378,0-19.294,3.083-20.131,4.027c-1.381,1.567-3.022,5.998-3.022,18.231v37.549h69.786c5.254,0,10.344,1.296,14.718,3.737
	c9.437,5.272,15.303,15.242,15.303,26.017l-0.037,94.909c0,16.394-13.343,29.735-29.745,29.735h-70.024v221.496
	C267.069,689.058,253.721,702.401,237.319,702.401z M145.324,666.453h85.791V435.072c0-10.951,8.912-19.859,19.859-19.859h79.915
	l0.033-82.497H250.97c-10.947,0-19.854-8.908-19.854-19.86v-53.642c0-14.044,1.427-30.016,12.028-42.021
	c12.809-14.512,32.996-16.187,47.068-16.187l44.22-0.02v-75.723l-68.664-0.112c-74.282,0-120.443,47.55-120.443,124.088v63.615
	c0,10.947-8.907,19.86-19.854,19.86H58.288v82.497h67.182c10.947,0,19.854,8.908,19.854,19.859V666.453z M340.616,125.273h0.005
	H340.616z"/>
</svg>
