<svg xmlns="http://www.w3.org/2000/svg" width="612" height="474" viewBox="0 157.5 612 474"><g fill="#78859C"><path d="M537.288 163.129H74.838C33.557 163.129 0 196.685 0 237.967v316.067c0 41.281 33.557 74.838 74.838 74.838h462.323c41.281 0 74.839-33.557 74.839-74.838v-315.94c.126-41.282-33.43-74.965-74.712-74.965zm40.649 390.905c0 22.413-18.235 40.647-40.648 40.647H74.838c-22.413 0-40.648-18.234-40.648-40.647v-315.94c0-22.414 18.235-40.648 40.648-40.648h462.323c22.414 0 40.648 18.234 40.648 40.648v315.94h.128z"/><path d="M385.966 392.075l149.676-134.228c6.965-6.332 7.599-17.095 1.267-24.187-6.331-6.965-17.095-7.598-24.187-1.266l-206.405 185.26-40.269-35.963c-.126-.127-.253-.254-.253-.38a25.25 25.25 0 00-2.786-2.406L99.151 232.268c-7.091-6.332-17.854-5.698-24.186 1.393-6.332 7.092-5.699 17.854 1.393 24.187l151.448 135.367L76.99 534.406c-6.838 6.458-7.218 17.222-.76 24.187 3.419 3.546 7.978 5.445 12.536 5.445 4.179 0 8.358-1.52 11.65-4.559L253.512 416.26l41.534 37.103c3.293 2.913 7.345 4.306 11.396 4.306 4.053 0 8.231-1.52 11.397-4.432l42.674-38.242 152.208 144.61c3.293 3.166 7.599 4.686 11.777 4.686 4.559 0 8.99-1.772 12.409-5.318 6.458-6.838 6.205-17.729-.633-24.187L385.966 392.075z"/></g></svg>